HIERARCHY
ROOT Hips
{
	OFFSET -3.958830 18.904000 13.208200
	CHANNELS 6 Xposition Yposition Zposition Zrotation Yrotation Xrotation 
	JOINT LHipJoint
	{
		OFFSET 0.000000 0.000000 0.000000
		CHANNELS 3 Zrotation Yrotation Xrotation
		JOINT LeftUpLeg
		{
			OFFSET 1.800000 -1.400000 0.085000
			CHANNELS 3 Zrotation Yrotation Xrotation
			JOINT LeftLeg
			{
				OFFSET 2.215000 -6.000000 0.000000
				CHANNELS 3 Zrotation Yrotation Xrotation
				JOINT LeftFoot
				{
					OFFSET 2.500000 -6.900000 0.000000
					CHANNELS 3 Zrotation Yrotation Xrotation
					JOINT LeftToeBase
					{
						OFFSET 0.200000 -0.500000 1.950000
						CHANNELS 3 Zrotation Yrotation Xrotation
						End Site
						{
							OFFSET 0.000000 0.000000 0.000000
						}
					}
				}
			}
		}
	}
	JOINT RHipJoint
	{
		OFFSET 0.000000 0.000000 0.000000
		CHANNELS 3 Zrotation Yrotation Xrotation
		JOINT RightUpLeg
		{
			OFFSET -1.800000 -1.400000 0.085000
			CHANNELS 3 Zrotation Yrotation Xrotation
			JOINT RightLeg
			{
				OFFSET -2.215000 -6.000000 0.000000
				CHANNELS 3 Zrotation Yrotation Xrotation
				JOINT RightFoot
				{
					OFFSET -2.500000 -6.900000 0.000000
					CHANNELS 3 Zrotation Yrotation Xrotation
					JOINT RightToeBase
					{
						OFFSET -0.200000 -0.500000 1.950000
						CHANNELS 3 Zrotation Yrotation Xrotation
						End Site
						{
							OFFSET 0.000000 0.000000 0.000000
						}
					}
				}
			}
		}
	}
	JOINT LowerBack
	{
		OFFSET 0.000000 0.000000 0.000000
		CHANNELS 3 Zrotation Yrotation Xrotation
		JOINT Spine
		{
			OFFSET -0.087000 1.940000 -0.288900
			CHANNELS 3 Zrotation Yrotation Xrotation
			JOINT Spine1
			{
				OFFSET 0.000000 1.950000 0.060000
				CHANNELS 3 Zrotation Yrotation Xrotation
				JOINT Neck
				{
					OFFSET 0.000000 0.000000 0.000000
					CHANNELS 3 Zrotation Yrotation Xrotation
					JOINT Neck1
					{
						OFFSET 0.000000 1.600000 0.340000
						CHANNELS 3 Zrotation Yrotation Xrotation
						JOINT Head
						{
							OFFSET 0.000000 1.667000 -0.240000
							CHANNELS 3 Zrotation Yrotation Xrotation
							End Site
							{
								OFFSET 0.000000 0.000000 0.000000
							}
						}
					}
				}
				JOINT LeftShoulder
				{
					OFFSET 0.000000 0.000000 0.000000
					CHANNELS 3 Zrotation Yrotation Xrotation
					JOINT LeftArm
					{
						OFFSET 2.700000 1.550000 -0.730000
						CHANNELS 3 Zrotation Yrotation Xrotation
						JOINT LeftForeArm
						{
							OFFSET 5.450000 0.000000 0.000000
							CHANNELS 3 Zrotation Yrotation Xrotation
							JOINT LeftHand
							{
								OFFSET 3.450000 0.000000 0.000000
								CHANNELS 3 Zrotation Yrotation Xrotation
								JOINT LeftHandIndex1
								{
									OFFSET 0.750000 0.000000 0.000000
									CHANNELS 3 Zrotation Yrotation Xrotation
									End Site
									{
										OFFSET 0.000000 0.000000 0.000000
									}
								}
							}
						}
					}
				}
				JOINT RightShoulder
				{
					OFFSET 0.000000 0.000000 0.000000
					CHANNELS 3 Zrotation Yrotation Xrotation
					JOINT RightArm
					{
						OFFSET -2.700000 1.550000 -0.730000
						CHANNELS 3 Zrotation Yrotation Xrotation
						JOINT RightForeArm
						{
							OFFSET -5.450000 0.000000 0.000000
							CHANNELS 3 Zrotation Yrotation Xrotation
							JOINT RightHand
							{
								OFFSET -3.450000 0.000000 0.000000
								CHANNELS 3 Zrotation Yrotation Xrotation
								JOINT RightHandIndex1
								{
									OFFSET -0.750000 0.000000 0.000000
									CHANNELS 3 Zrotation Yrotation Xrotation
									End Site
									{
										OFFSET 0.000000 0.000000 0.000000
									}
								}
							}
						}
					}
				}
			}
		}
	}
}
MOTION
Frames: 13
Frame Time: 0.016667
-1.156470 14.161850 -3.698920 -44.599526 -1.325914 6.307771 -15.854031 12.101261 5.376554 -15.733654 -13.740044 -33.212828 4.127996 7.208544 51.352990 0.310133 7.945089 1.512371 0.494340 0.579860 0.467880 18.004231 -8.989423 2.586037 -4.816633 6.436158 -29.595048 -4.507613 -7.420489 65.284683 -1.568788 -9.344675 0.894838 0.327530 -0.043580 0.137180 -2.255241 -4.147906 -8.550996 -7.790735 10.127769 46.926760 3.329411 7.591249 25.811477 -0.777110 1.771941 -16.338762 0.562040 6.503516 35.363118 2.255630 10.441810 -21.154090 -1.587882 -29.510541 8.300444 -13.588034 -19.369251 1.960448 8.176567 4.660443 -0.754867 -4.027844 2.685073 0.552710 -0.102600 0.329970 0.024580 0.875325 30.180051 15.327322 35.530570 1.998891 -1.774825 2.764867 1.862192 -0.404538 2.544558 -1.114836 -0.124780 0.213040 -0.081730 -0.132940 
-1.205310 14.120960 -3.655220 -44.671875 -3.238817 4.677710 -15.871035 12.114620 5.235386 -14.924723 -13.326182 -33.272610 3.959259 8.062172 53.623944 0.548771 8.380686 1.387524 0.444300 0.536780 0.403320 17.993220 -8.783983 2.811371 -7.193379 7.516210 -30.833800 -1.675442 -9.700302 67.974673 -1.695215 -9.966776 0.748477 0.247660 -0.073520 0.087830 -2.210872 -4.300051 -8.668213 -9.040169 11.064886 47.478690 3.346808 7.995664 23.231458 -0.417758 1.044731 -16.510059 -1.160626 6.393577 36.790572 4.781910 9.550010 -20.096400 -2.836100 -27.534313 8.017875 -15.411370 -18.997810 2.177502 7.998822 3.575218 -0.547970 -3.875317 2.765683 0.544150 -0.164290 0.330770 0.037550 1.806576 29.158316 15.876747 32.286840 -1.378507 -2.641866 5.988339 0.694806 -0.764655 2.645352 -1.026924 -0.094930 0.171740 -0.107210 -0.097500 
-1.203360 14.006260 -3.562460 -45.967539 -3.079365 1.469310 -15.856517 11.964473 5.192628 -14.992129 -13.723905 -31.691469 3.687657 9.130757 58.761821 0.845023 9.519914 1.132781 0.295530 0.346800 0.332480 18.020757 -8.597222 3.021298 -10.115340 7.689176 -31.796815 2.981287 -14.268782 70.151526 -1.884451 -10.876166 0.591595 0.130880 -0.004790 -0.009920 -2.282048 -4.231595 -8.896786 -6.705854 9.014979 49.742963 1.260653 6.938289 21.116676 1.015972 1.933309 -17.139139 -0.137098 5.427169 39.360751 5.447540 8.767890 -18.773700 -3.793670 -26.546858 8.379307 -17.492179 -17.032636 2.150918 7.551961 1.781203 -0.435261 -3.772861 2.599293 0.621740 -0.164940 0.296120 0.044200 0.194975 26.986725 15.980991 32.406348 -5.493307 -3.897196 1.958358 -0.379855 -0.190814 2.682742 -0.871744 -0.212200 0.279970 -0.077600 -0.117710 
-1.227040 13.844110 -3.418340 -47.770171 -2.325230 -1.398540 -15.756421 11.649486 4.962742 -15.218231 -13.509189 -29.087124 2.629969 10.019726 60.578272 1.030211 9.996413 1.033512 0.247150 0.308250 0.273940 18.142981 -8.319386 3.552733 -15.091207 7.875134 -34.222023 9.664160 -21.435078 73.400444 -2.285658 -12.517111 0.174183 0.093700 0.033560 -0.035630 -2.606295 -3.896169 -9.129135 -2.437401 4.973253 50.379143 -2.409204 4.818821 20.159981 2.236026 1.389297 -16.913108 -1.474421 6.002907 40.129582 6.621600 8.309330 -17.699810 -3.991201 -23.905272 8.003674 -20.074604 -15.872907 2.149233 7.509758 0.116716 -0.433278 -3.710342 2.606024 0.610900 -0.163060 0.280170 0.056660 -1.850464 23.500292 15.251959 31.605029 -8.328550 -4.865553 -3.512664 -0.738882 0.294715 2.745621 -0.849865 -0.219200 0.310500 -0.062400 -0.090590 
-1.221600 13.727470 -3.318970 -49.811122 -1.151652 -3.355913 -15.668288 11.125326 4.811354 -11.555424 -14.513576 -29.981498 -2.023810 13.724283 64.162876 1.247488 11.390546 0.618641 0.170450 0.152100 0.244660 18.294784 -7.774355 4.270916 -19.691540 8.076983 -38.118046 17.116885 -29.729918 75.322608 -2.739496 -14.178340 -0.243892 0.019050 0.077110 0.000810 -2.949319 -3.635316 -9.472242 1.694139 0.813511 51.300809 -5.618293 2.505297 18.289845 3.415975 0.571947 -16.464546 -3.248311 7.404958 41.070871 6.414880 8.835700 -18.049750 -5.081362 -20.779899 6.906333 -21.270125 -15.677673 2.513587 6.664640 -0.471132 -0.509288 -3.752378 2.559021 0.690260 -0.150720 0.252140 0.011460 -2.670970 19.594550 14.580515 25.827623 -10.979663 -4.980364 -5.280131 -0.093132 0.364572 2.725407 -0.735937 -0.272880 0.320990 0.035650 -0.134510 
-1.250800 13.675940 -3.239700 -49.734021 0.351464 -5.412077 -15.783990 10.701653 4.860726 -6.813015 -16.117258 -32.597576 -9.472343 19.837769 66.562427 1.695913 13.058338 0.164110 0.220510 0.233310 0.242590 18.277193 -6.931589 4.807099 -24.201916 7.584608 -41.297650 21.672967 -37.748186 79.523345 -3.205782 -15.810576 -0.574885 0.076110 0.066510 -0.048980 -2.741184 -4.249397 -9.808533 0.288899 -0.001447 51.192352 -5.198308 0.860610 18.416217 4.002881 0.283457 -16.209809 -3.625812 7.652697 39.874027 6.869910 8.361300 -16.190380 -3.644345 -18.678308 6.685612 -24.360626 -15.050887 2.724635 6.549668 -1.108263 -0.433774 -3.678450 2.644219 0.628410 -0.154490 0.220390 0.046470 -5.147597 17.356912 14.362022 20.637682 -12.489790 -4.634299 -6.879937 1.404507 0.151281 2.740359 -0.779541 -0.260160 0.314880 -0.019040 -0.112110 
-1.234420 13.626150 -3.095030 -51.634234 -0.152108 -8.681923 -15.678069 10.203381 4.873109 -1.211269 -15.907216 -34.889576 -14.812453 25.459941 69.218797 2.074709 14.721940 -0.308527 0.288190 0.276360 0.325910 18.390053 -6.640710 5.204307 -25.565835 8.755080 -41.674566 26.117883 -45.464480 82.446012 -3.695616 -16.977463 -0.796909 0.075690 0.009310 0.031140 -3.063786 -3.740576 -10.024607 3.253327 -2.698479 52.474183 -7.856550 -0.092439 17.976985 4.725668 0.321662 -15.724297 -3.609318 8.689327 41.971811 6.111020 9.758090 -19.292180 -4.577828 -16.711558 5.978628 -24.931213 -14.445849 2.638688 6.320805 -1.163603 -0.510494 -3.675982 2.645715 0.703120 -0.191080 0.311330 0.037080 -5.457790 14.475096 13.665375 13.760336 -13.031909 -4.029611 -10.308519 2.924051 0.150778 2.715723 -0.800104 -0.213080 0.291930 -0.026340 -0.135230 
-1.197160 13.552860 -2.938450 -51.754404 -2.716052 -12.148076 -15.610639 9.861028 4.774998 2.080607 -14.305538 -36.068811 -17.253860 28.943105 70.077673 2.183163 15.596650 -0.594190 0.290740 0.229680 0.372710 18.464008 -6.353974 5.667049 -27.432861 10.582346 -43.088644 34.150490 -52.313845 80.706443 -3.885805 -17.271579 -0.862468 0.073530 -0.024020 0.056410 -3.307900 -3.286918 -10.164180 4.651343 -3.504741 53.661007 -10.334525 0.251368 17.718313 5.579026 0.174192 -15.522593 -3.790492 9.251918 42.699747 5.725090 10.063570 -19.982130 -5.042514 -15.358156 5.431561 -25.597659 -13.859269 2.681108 5.323896 -1.281117 -0.593560 -3.701379 2.630945 0.756920 -0.208080 0.312840 -0.025960 -6.592698 13.018004 13.352850 8.211788 -13.979898 -4.028459 -14.048945 3.318297 0.105399 2.729310 -0.841697 -0.231270 0.272970 0.026160 -0.189100 
-1.184150 13.481810 -2.804960 -49.802181 -3.428435 -14.975356 -15.669190 9.739116 4.779380 1.712890 -14.183958 -36.823776 -18.523817 30.721705 70.300100 2.335396 15.973858 -0.661709 0.251880 0.199820 0.282970 18.425460 -6.038092 5.947706 -29.652550 10.526980 -43.897587 43.275326 -57.835053 76.306138 -3.824552 -16.763475 -0.700132 0.066750 0.018670 0.013110 -3.181045 -3.495943 -10.292991 2.522360 -2.408860 54.154976 -10.124983 0.502722 16.593681 5.903901 -0.292077 -15.798656 -4.857924 8.743284 42.267754 8.032910 7.740900 -16.622150 -5.289643 -15.271680 5.623037 -26.636586 -12.970788 2.734606 4.121351 -0.913448 -0.507119 -3.682655 2.669703 0.701400 -0.195450 0.244000 -0.011920 -6.885072 13.771596 13.479794 2.279800 -18.511755 -4.446227 -17.775830 7.037813 -0.253229 2.684212 -1.001479 -0.238780 0.271740 0.045760 -0.155090 
-1.206310 13.382740 -2.646540 -48.532684 -4.246414 -16.521637 -15.752927 9.694514 4.909054 1.050871 -14.640046 -39.454452 -17.440942 31.252280 72.038086 2.276543 16.502867 -0.775096 0.090620 -0.028680 0.176020 18.373259 -5.899167 5.961821 -30.819067 8.853324 -46.075945 63.436261 -62.883010 61.317541 -3.370180 -14.630204 -0.181976 0.028650 0.198610 -0.045750 -3.007227 -3.768592 -10.359183 0.800688 -1.523413 52.740956 -9.407303 0.829167 15.019604 6.071725 -0.916098 -15.139382 -5.692299 9.123666 41.484513 9.718650 6.186610 -14.374240 -5.637293 -13.994734 5.496064 -29.146755 -12.069898 2.930263 3.592377 -0.756990 -0.641394 -3.804298 2.517382 0.735440 -0.119690 0.107400 -0.055630 -6.752207 13.594635 12.321211 -6.780459 -18.777775 -4.062443 -22.142879 8.326016 -0.576776 2.629482 -1.026368 -0.412820 0.424570 0.204890 -0.184410 
-1.210170 13.307700 -2.493690 -46.059740 -5.574158 -18.266092 -15.862260 10.070884 4.991401 -1.587628 -14.892700 -40.806283 -15.304238 27.629492 68.343035 2.057550 15.162179 -0.425788 0.144640 0.077930 0.148030 18.257839 -6.202174 5.526797 -31.017114 5.538234 -46.904320 91.557027 -59.365143 37.515324 -2.912807 -12.294814 0.433078 0.050330 0.203690 -0.028080 -2.693573 -4.149409 -10.195031 -2.164227 0.994727 51.431365 -7.729052 2.082744 13.628195 6.294622 -1.340966 -14.412727 -6.233374 9.551510 40.962540 10.138860 5.923440 -12.197640 -6.220032 -13.263208 5.707420 -31.379245 -11.685647 3.015279 3.001034 -0.532486 -0.514612 -3.763846 2.650251 0.631000 -0.102010 0.108430 0.009330 -6.659630 14.447100 10.755231 -14.439742 -19.315437 -4.195109 -28.341942 9.390543 -1.323665 2.728406 -1.279772 -0.322580 0.370160 0.132420 -0.111490 
-1.177000 13.247330 -2.368200 -43.340829 -7.646700 -20.729290 -15.851811 10.086903 4.843598 -6.538066 -14.930522 -41.165539 -10.174379 20.485622 61.405959 1.328426 12.495292 0.281159 0.110040 0.040050 0.106070 18.305409 -6.219810 5.745598 -34.597701 4.690850 -44.874479 103.290649 -46.221363 24.559774 -2.737759 -11.557055 0.637852 0.049400 0.251460 -0.059590 -2.798529 -3.826642 -10.136208 -2.992596 2.516506 51.981814 -9.153713 3.314248 12.612783 6.866223 -1.977021 -13.986989 -7.140607 9.071396 39.836114 10.099600 4.956620 -12.168650 -6.508042 -13.074421 5.825436 -31.435269 -11.196668 2.871807 2.619641 -0.738815 -0.536629 -3.760555 2.608738 0.636840 -0.089890 0.074720 0.023790 -7.552185 15.577467 9.557652 -18.426854 -19.851635 -5.743297 -35.477084 10.499844 -2.351699 2.822491 -1.405229 -0.370470 0.421600 0.151760 -0.104070 
-1.037620 13.168880 -2.287820 -42.408749 -13.382802 -24.277225 -15.651423 9.814280 4.493983 -8.631492 -12.889713 -42.475282 -5.150063 15.559571 56.768217 0.868185 10.518770 0.807888 0.157400 0.134400 0.056970 18.516319 -6.137745 6.499678 -39.182146 9.039021 -39.117246 94.829660 -21.414115 15.627422 -2.242591 -9.768093 1.016700 0.081320 0.255470 -0.003390 -3.534898 -2.435545 -10.090471 1.221640 1.104194 55.471717 -14.416116 4.267680 12.407385 8.056310 -4.371848 -13.974584 -10.928947 9.401032 36.618808 11.472730 3.445600 -13.292360 -7.113251 -13.360991 5.905624 -30.935389 -10.728524 2.700580 2.799177 -0.081790 -0.512861 -3.750518 2.715941 0.570480 -0.102860 0.097710 0.053450 -9.363146 17.702428 8.515139 -21.454786 -19.534390 -8.653078 -42.853181 9.802161 -3.541242 3.106020 -1.609559 -0.276860 0.382310 0.146240 -0.024400 
